<svg xmlns="http://www.w3.org/2000/svg" width="1024" height="1024" viewBox="0 0 1024 1024">
  <defs>
    <linearGradient id="backPaper" x1="238" y1="164" x2="646" y2="738" gradientUnits="userSpaceOnUse">
      <stop offset="0" stop-color="#d3dae4"/>
      <stop offset="1" stop-color="#9aa5b2"/>
    </linearGradient>
    <linearGradient id="frontPaper" x1="366" y1="238" x2="762" y2="816" gradientUnits="userSpaceOnUse">
      <stop offset="0" stop-color="#ffffff"/>
      <stop offset="1" stop-color="#edf1f6"/>
    </linearGradient>
    <linearGradient id="arrow" x1="210" y1="614" x2="796" y2="614" gradientUnits="userSpaceOnUse">
      <stop offset="0" stop-color="#7dd3fc"/>
      <stop offset="1" stop-color="#38bdf8"/>
    </linearGradient>
    <filter id="softShadow" x="-22%" y="-18%" width="144%" height="150%">
      <feDropShadow dx="0" dy="18" stdDeviation="24" flood-color="#111827" flood-opacity="0.26"/>
    </filter>
  </defs>

  <g filter="url(#softShadow)">
    <path d="M266 174h298c34 0 62 28 62 62v426c0 34-28 62-62 62H266c-34 0-62-28-62-62V236c0-34 28-62 62-62z" fill="url(#backPaper)"/>
    <path d="M266 174h206l154 152v54H470c-34 0-62-28-62-62V174z" fill="#e2e7ee"/>
    <path d="M408 274h306c34 0 62 28 62 62v452c0 34-28 62-62 62H408c-34 0-62-28-62-62V336c0-34 28-62 62-62z" fill="url(#frontPaper)"/>
    <path d="M408 274h212l156 154v56H620c-34 0-62-28-62-62V274z" fill="#dce3ec"/>
    <rect x="430" y="526" width="240" height="38" rx="19" fill="#8b95a1"/>
    <rect x="430" y="606" width="190" height="38" rx="19" fill="#a8b0ba"/>
  </g>

  <path d="M188 716h376c56 0 102-46 102-102v-36" fill="none" stroke="url(#arrow)" stroke-width="70" stroke-linecap="round"/>
  <path d="M660 468l146 146-146 146V468z" fill="#38bdf8"/>
  <path d="M788 336H410c-56 0-102 46-102 102v36" fill="none" stroke="#f8fafc" stroke-width="56" stroke-linecap="round"/>
  <path d="M312 582 202 474l110-110v218z" fill="#f8fafc"/>
</svg>
